<svg width="233" height="194" fill="none" xmlns="http://www.w3.org/2000/svg"><path fill-rule="evenodd" clip-rule="evenodd" d="M228.155 10.252c-8.925 25.589-41.298 107.34-49.037 123.828-4.468 9.524-11.507 21.872-15.639 27.441-4.133 5.569-7.515 10.571-7.515 11.117 0 .545 3.359.971 7.465.948 10.643-.06 21.03-5.92 32.168-18.143 13.778-15.118 20.879-32.524 25.219-61.81C227.6 47.864 233.547 2.092 232.96.16c-.328-1.081-2.492 3.46-4.805 10.093zM57.603 28.562c-10.667 4.123-27.8 23.116-35.031 38.833-3.082 6.703-7.089 19.685-8.905 28.85-3.378 17.052-14.49 96.796-13.618 97.75.263.291 5.766-12.196 12.225-27.749C58.702 54.454 60.524 50.583 73.72 35.586c6.836-7.768 6.896-7.953 2.897-9.129-6.01-1.765-10.195-1.303-19.014 2.105zM80.3 41.153c-6.357 4.702-19.161 22.025-19.175 25.944-.006 1.306 4.14 4.691 9.212 7.52 9.538 5.32 71.124 31.546 74.077 31.546.919 0-.362-2.385-2.842-5.301-2.482-2.916-12.478-17.155-22.216-31.643-9.737-14.488-19.493-27.717-21.678-29.396-5.468-4.204-10.407-3.826-17.378 1.33zm20.81 73.202c6.638 8.746 15.745 21.227 20.238 27.732 11.756 17.023 18.19 22.52 24.691 21.094 7.835-1.72 16.37-9.781 22.231-20.997 2.875-5.5 5.233-11.028 5.243-12.285.014-2.02-77.086-31.446-82.397-31.446-1.14 0 3.358 7.155 9.994 15.902z" fill="#fff"/></svg>