<svg width="661" height="639" fill="none" xmlns="http://www.w3.org/2000/svg"><path d="M452.67 566.925c-1.727 0-3.669-.432-5.18-1.511l-96.262-55.671.648-1.294 96.261 55.67a8.578 8.578 0 009.065 0l83.096-47.902.648 1.294-83.096 47.903c-1.511 1.079-3.238 1.511-5.18 1.511z" fill="#42E8E0"/><path d="M272.449 585.913c-1.727 0-3.669-.431-5.396-1.51l-107.701-62.36L443.605 357.62l.647 1.295-282.094 163.128 105.543 61.065a8.582 8.582 0 009.065 0l80.505-45.961.648 1.295-80.506 45.961c-1.295 1.079-3.237 1.51-4.964 1.51z" fill="#42E8E0"/><path opacity=".3" d="M290.147 526.79l-136.406-78.759c-1.727-.863-1.511-2.589.431-3.668l204.179-118.031c1.942-1.079 4.748-1.294 6.475-.215l136.406 78.758c1.727.864 1.511 2.59-.431 3.669l-204.179 118.03c-1.942 1.079-4.748 1.295-6.475.216z" fill="#0B0244"/><path d="M494.326 383.73l-5.828 1.078-133.601-77.032c-1.726-1.079-4.748-.863-6.691.216L148.992 423.217l-10.144 1.726v3.237c0 .647.432 1.294 1.079 1.726l138.134 79.838c1.726 1.079 4.748.863 6.69-.216L492.599 389.34c1.079-.648 1.727-1.511 1.727-2.158v-3.452z" fill="#312A91"/><path opacity=".5" d="M494.326 383.73l-5.828 1.078-133.601-77.032c-1.726-1.079-4.748-.863-6.691.216L148.992 423.217l-10.144 1.726v3.237c0 .647.432 1.294 1.079 1.726l138.134 79.838c1.726 1.079 4.748.863 6.69-.216L492.599 389.34c1.079-.648 1.727-1.511 1.727-2.158v-3.452z" fill="url(#paint0_radial_367_9004)"/><path d="M492.815 387.398L284.967 507.586c-1.942 1.079-4.964 1.295-6.691.216l-138.133-79.838c-.863-.432-1.079-1.079-1.079-1.726v.863c0 .647.432 1.294 1.079 1.726l138.133 79.838c1.727 1.079 4.749.863 6.691-.216l207.848-120.188c1.079-.648 1.726-1.511 1.726-2.158v-.863a3.826 3.826 0 01-1.726 2.158z" fill="url(#paint1_radial_367_9004)"/><path d="M278.276 506.291l-138.133-79.838c-1.727-1.079-1.511-2.805.432-3.884l207.847-120.188c1.943-1.079 4.964-1.295 6.691-.216l138.133 79.838c1.727 1.079 1.511 2.805-.431 3.884L284.967 506.075c-1.942 1.079-4.964 1.295-6.691.216z" fill="#312A91"/><path opacity=".7" d="M278.276 506.291l-138.133-79.838c-1.727-1.079-1.511-2.805.432-3.884l207.847-120.188c1.943-1.079 4.964-1.295 6.691-.216l138.133 79.838c1.727 1.079 1.511 2.805-.431 3.884L284.967 506.075c-1.942 1.079-4.964 1.295-6.691.216z" fill="url(#paint2_linear_367_9004)"/><g opacity=".4"><path opacity=".5" d="M494.326 383.082l-5.828 1.079-133.601-77.033c-1.726-1.079-4.748-.863-6.691.216l-198.998 115.01-10.144 1.726v.647c0 .647.432 1.295 1.079 1.726l138.133 79.838c1.727 1.079 4.749.863 6.691-.216l207.848-120.188c1.079-.647 1.726-1.51 1.726-2.158v-.647h-.215z" fill="url(#paint3_radial_367_9004)"/><path opacity=".7" d="M278.276 505.644l-138.133-79.838c-1.727-1.079-1.511-2.805.432-3.884l207.847-120.188c1.943-1.079 4.964-1.295 6.691-.216l138.133 79.838c1.727 1.079 1.511 2.805-.431 3.884L284.967 505.428c-1.942 1.079-4.964 1.295-6.691.216z" fill="url(#paint4_radial_367_9004)"/><path opacity=".4" d="M278.276 505.644l-138.133-79.838c-1.727-1.079-1.511-2.805.432-3.884l207.847-120.188c1.943-1.079 4.964-1.295 6.691-.216l138.133 79.838c1.727 1.079 1.511 2.805-.431 3.884L284.967 505.428c-1.942 1.079-4.964 1.295-6.691.216z" fill="#312A91"/></g><path opacity=".5" d="M278.276 505.644l-138.133-79.838c-1.727-1.079-1.511-2.805.432-3.884l207.847-120.188c1.943-1.079 4.964-1.295 6.691-.216l138.133 79.838c1.727 1.079 1.511 2.805-.431 3.884L284.967 505.428c-1.942 1.079-4.964 1.295-6.691.216z" fill="url(#paint5_radial_367_9004)"/><path opacity=".5" d="M278.276 505.644l-138.133-79.838c-1.727-1.079-1.511-2.805.432-3.884l207.847-120.188c1.943-1.079 4.964-1.295 6.691-.216l138.133 79.838c1.727 1.079 1.511 2.805-.431 3.884L284.967 505.428c-1.942 1.079-4.964 1.295-6.691.216z" fill="url(#paint6_radial_367_9004)"/><path opacity=".9" d="M279.14 505.644l-138.134-79.838c-1.942-1.079-2.158-2.374.432-3.884l207.848-120.188c.863-.432 1.942-.863 3.021-.863-1.295 0-2.806.215-3.885.863L140.575 421.922c-1.943 1.079-2.159 2.805-.432 3.884l138.133 79.838c.864.647 2.159.647 3.67.647-1.08 0-2.159-.216-2.806-.647z" fill="url(#paint7_radial_367_9004)"/><path d="M346.696 294.613L329.645 148.1c0-.216-.216-.648-.216-.863l1.511-.648-3.454-1.942c-1.51-.863-3.237-.863-4.964 0L116.833 263.541c-1.942 1.079-3.022 3.237-2.806 5.61l17.051 146.513c.216 1.726 1.295 3.237 2.806 3.884l3.237 1.942-.431-1.726c.431 0 1.079-.216 1.511-.647L343.89 300.223c1.942-1.295 3.021-3.452 2.806-5.61z" fill="#312A91"/><path opacity=".7" d="M346.696 294.613L329.645 148.1c0-.216-.216-.648-.216-.863l1.511-.648-3.454-1.942c-1.51-.863-3.237-.863-4.964 0L116.833 263.541c-1.942 1.079-3.022 3.237-2.806 5.61l17.051 146.513c.216 1.726 1.295 3.237 2.806 3.884l3.237 1.942-.431-1.726c.431 0 1.079-.216 1.511-.647L343.89 300.223c1.942-1.295 3.021-3.452 2.806-5.61z" fill="url(#paint8_linear_367_9004)"/><path d="M347.775 302.381L142.086 421.274c-3.022 1.727-7.123-.215-7.339-3.668l-17.051-146.513c-.215-2.158.864-4.316 2.806-5.61l205.689-118.894c3.022-1.726 7.123.216 7.339 3.668l17.051 146.514c.215 2.157-.864 4.315-2.806 5.61z" fill="url(#paint9_linear_367_9004)"/><path opacity=".5" d="M347.775 302.381L142.086 421.274c-3.022 1.727-7.123-.215-7.339-3.668l-17.051-146.513c-.215-2.158.864-4.316 2.806-5.61l205.689-118.894c3.022-1.726 7.123.216 7.339 3.668l17.051 146.514c.215 2.157-.864 4.315-2.806 5.61z" fill="url(#paint10_radial_367_9004)"/><path opacity=".9" d="M118.776 266.562l-3.454-1.942c-.647.863-1.079 1.726-1.295 2.805l3.454 1.942c.215-1.079.647-2.158 1.295-2.805z" fill="url(#paint11_radial_367_9004)"/><path opacity=".9" d="M135.395 417.822l-17.051-146.513c-.432-2.589.432-3.884 2.806-5.61l205.689-118.894c1.511-.863 3.237-.863 4.532-.216-1.51-1.078-3.669-1.294-5.395-.215l-205.69 118.893c-1.942 1.079-3.021 3.237-2.805 5.61l17.05 146.514c.216 1.942 1.295 3.236 2.806 3.884-1.079-.648-1.726-1.942-1.942-3.453z" fill="url(#paint12_linear_367_9004)"/><path opacity=".4" d="M208.778 419.116l-5.396 3.021c-.647.216-1.295.432-1.726 0l-5.612-3.236c-.432-.216-.432-.648.216-1.079l5.396-3.021c.647-.216 1.295-.432 1.726 0l5.612 3.237c.432.431.432.863-.216 1.078zm131.011-18.125l-56.117 32.367c-.647.216-1.295.431-1.726 0l-5.612-3.237c-.432-.216-.432-.647.216-1.079l56.116-32.366c.648-.216 1.295-.432 1.727 0l5.612 3.236c.216.432.216.863-.216 1.079zm41.44-23.951l-5.396 3.021c-.647.215-1.295.431-1.727 0l-5.611-3.237c-.432-.216-.432-.647.216-1.079l5.395-3.021c.648-.216 1.295-.431 1.727 0l5.612 3.237c.431.216.431.863-.216 1.079zm10.576-6.042l-5.396 3.021c-.648.216-1.295.432-1.727 0l-5.611-3.237c-.432-.215-.432-.647.215-1.079l5.396-3.02c.648-.216 1.295-.432 1.727 0l5.612 3.236c.431.216.431.648-.216 1.079zm-9.281-5.394l-5.396 3.021c-.647.215-1.295.431-1.727 0l-5.611-3.237c-.432-.216-.432-.647.216-1.079l5.395-3.021c.648-.216 1.295-.431 1.727 0l5.612 3.237c.216.216.216.647-.216 1.079zm20.072-.863l-5.395 3.02c-.648.216-1.295.432-1.727 0l-5.612-3.236c-.431-.216-.431-.648.216-1.079l5.396-3.021c.647-.216 1.295-.432 1.727 0l5.611 3.237c.432.215.216.863-.216 1.079zm-139.644 80.485l-10.144 5.826c-.647.216-1.295.431-1.727 0l-5.611-3.237c-.432-.216-.432-.647.216-1.079l10.144-5.826c.647-.215 1.295-.431 1.726 0l5.612 3.237c.432.432.432.863-.216 1.079zm15.324-8.847l-10.144 5.826c-.647.216-1.295.431-1.726 0l-5.612-3.237c-.432-.215-.432-.647.216-1.079l10.144-5.826c.647-.215 1.295-.431 1.727 0l5.611 3.237c.432.432.432.863-.216 1.079zm77.269-44.45l-10.144 5.826c-.648.215-1.295.431-1.727 0l-5.612-3.237c-.431-.216-.431-.647.216-1.079l10.144-5.826c.648-.216 1.295-.431 1.727 0l5.612 3.237c.431.216.215.647-.216 1.079zm15.324-8.847l-10.144 5.826c-.648.216-1.295.431-1.727 0l-5.612-3.237c-.431-.216-.431-.647.216-1.079l10.144-5.826c.648-.216 1.295-.431 1.727 0l5.612 3.237c.431.216.431.647-.216 1.079zm-143.745 25.677l-5.396 3.021c-.647.216-1.295.432-1.727 0l-5.611-3.236c-.432-.216-.432-.648.216-1.079l5.395-3.021c.648-.216 1.295-.432 1.727 0l5.612 3.236c.216.216.216.648-.216 1.079zm135.975-66.675l-149.788 86.527c-.648.216-1.295.431-1.727 0l-5.612-3.237c-.431-.216-.431-.647.216-1.079l149.788-86.527c.648-.215 1.295-.431 1.727 0l5.612 3.237c.431.216.431.647-.216 1.079zm10.144 5.61l-149.788 86.527c-.648.216-1.295.432-1.727 0l-5.612-3.237c-.431-.215-.431-.647.216-1.079l149.789-86.526c.647-.216 1.295-.432 1.726 0l5.612 3.236c.216.432.216.863-.216 1.079zm9.928 5.826l-149.788 86.527c-.647.216-1.295.432-1.727 0l-5.611-3.236c-.432-.216-.432-.648.216-1.079l149.788-86.527c.647-.216 1.295-.432 1.727 0l5.611 3.236c.432.432.216.864-.216 1.079zm-11.223 18.126l-128.421 74.227c-.647.216-1.295.432-1.726 0l-5.612-3.237c-.432-.215-.432-.647.216-1.078l128.421-74.228c.647-.216 1.295-.432 1.726 0l5.612 3.237c.216.215.216.863-.216 1.079zm-134.896 31.287l-5.396 3.021c-.647.216-1.295.432-1.726 0l-5.612-3.236c-.432-.216-.432-.648.216-1.079l5.396-3.021c.647-.216 1.295-.432 1.726 0l5.612 3.236c.432.216.216.648-.216 1.079zm9.929-5.826l-5.396 3.021c-.648.216-1.295.432-1.727 0l-5.612-3.236c-.431-.216-.431-.648.216-1.079l5.396-3.021c.648-.216 1.295-.432 1.727 0l5.611 3.236c.432.432.432.863-.215 1.079zm9.928-5.826l-5.396 3.021c-.647.216-1.295.432-1.727 0l-5.611-3.237c-.432-.215-.432-.647.216-1.078l5.395-3.021c.648-.216 1.295-.432 1.727 0l5.612 3.236c.431.432.431.864-.216 1.079zm23.094-13.162l-5.396 3.021c-.647.216-1.295.431-1.726 0l-5.612-3.237c-.432-.216-.432-.647.216-1.079l5.396-3.021c.647-.215 1.295-.431 1.726 0l5.612 3.237c.216.216.216.863-.216 1.079zm9.928-5.826l-5.395 3.021c-.648.215-1.295.431-1.727 0l-5.612-3.237c-.431-.216-.431-.647.216-1.079l5.396-3.021c.647-.216 1.295-.431 1.727 0l5.611 3.237c.432.431.216.863-.216 1.079zm9.929-5.61l-5.396 3.02c-.648.216-1.295.432-1.727 0l-5.611-3.236c-.432-.216-.432-.648.216-1.079l5.395-3.021c.648-.216 1.295-.431 1.727 0l5.612 3.237c.431.216.431.647-.216 1.079zm9.928-5.826l-5.396 3.021c-.647.215-1.295.431-1.726 0l-5.612-3.237c-.432-.216-.432-.647.216-1.079l5.396-3.021c.647-.216 1.295-.431 1.726 0l5.612 3.237c.432.216.432.863-.216 1.079zm23.094-13.163l-5.396 3.021c-.647.216-1.295.432-1.726 0l-5.612-3.237c-.432-.215-.432-.647.216-1.079l5.396-3.02c.647-.216 1.295-.432 1.726 0l5.612 3.236c.216.216.216.648-.216 1.079zm60.002 11.437l-5.396 3.02c-.647.216-1.295.432-1.727 0l-5.611-3.236c-.432-.216-.432-.648.216-1.079l5.395-3.021c.648-.216 1.295-.431 1.727 0l5.612 3.237c.431.431.216.863-.216 1.079zm-50.073-17.263l-5.396 3.021c-.648.216-1.295.432-1.727 0l-5.612-3.237c-.431-.215-.431-.647.216-1.079l5.396-3.02c.648-.216 1.295-.432 1.727 0l5.611 3.236c.432.216.216.648-.215 1.079zm9.928-5.826l-5.396 3.021c-.647.216-1.295.432-1.727 0l-5.611-3.237c-.432-.215-.432-.647.216-1.078l5.395-3.021c.648-.216 1.295-.432 1.727 0l5.612 3.236c.431.432.431.863-.216 1.079z" fill="#42E8E0"/><path opacity=".6" d="M144.244 419.764l278.209 6.042 70.146-40.566c1.942-1.079 2.158-2.805.432-3.884l-138.134-79.838c-1.726-1.079-4.748-.863-6.691.216l-203.962 118.03z" fill="url(#paint13_radial_367_9004)"/><path opacity=".2" d="M480.944 387.397c.432.216.432.863 0 1.079-.432.216-1.295.216-1.943 0-.431-.216-.431-.863 0-1.079.648-.216 1.511-.216 1.943 0z" fill="#FCCC6B"/><path opacity=".6" d="M483.966 385.671c.431.216.431.863 0 1.079-.432.216-1.295.216-1.943 0-.432-.216-.432-.863 0-1.079.432-.216 1.295-.216 1.943 0z" fill="#FCCC6B"/><path d="M486.771 384.161c.432.215.432.863 0 1.078-.431.216-1.295.216-1.942 0-.432-.215-.432-.863 0-1.078.647-.432 1.511-.432 1.942 0z" fill="#FCCC6B"/><path d="M198.634 292.239c-.216 0-.432 0-.648-.215-.431-.216-.647-.648-.863-1.295l-1.295-11.221c-.216-1.078.432-2.373 1.295-2.805l74.894-43.155a1.375 1.375 0 011.295 0c.432.216.648.647.864 1.294l1.295 11.221c.215 1.079-.432 2.373-1.295 2.805l-74.895 43.156c-.215.215-.431.215-.647.215zm74.247-58.26c-.216 0-.216 0-.432.216l-74.894 43.156c-.648.431-1.079 1.294-.864 2.157l1.295 11.221c0 .431.216.647.432.647h.648l74.894-43.155c.647-.432 1.079-1.295.863-2.158l-1.295-11.221c0-.431-.216-.647-.647-.863.215 0 0 0 0 0zm-71.657 80.054c-.216 0-.432 0-.648-.216-.431-.216-.647-.647-.863-1.294l-1.295-11.221c-.216-1.079.432-2.373 1.295-2.805l74.894-43.155a1.375 1.375 0 011.295 0c.432.215.648.647.864 1.294l1.295 11.221c.215 1.078-.432 2.373-1.295 2.805l-74.895 43.155s-.431.216-.647.216zm74.247-58.26c-.216 0-.216 0-.432.216l-74.894 43.155c-.648.432-1.079 1.295-.864 2.158l1.295 11.221c0 .431.216.647.432.647h.648l74.894-43.156c.647-.431 1.079-1.294.863-2.157l-1.295-11.221c0-.431-.216-.647-.647-.863.215 0 .215 0 0 0zm3.885 36.251l-74.895 43.155c-.647.432-1.51 0-1.51-.863l-1.295-11.22c-.216-.863.431-1.942 1.079-2.374l74.894-43.155c.647-.432 1.511 0 1.511.863l1.295 11.22c.216.863-.216 1.942-1.079 2.374z" fill="#42E8E0"/><path d="M207.915 302.381c.216 1.079-.432 2.158-1.295 2.805-.864.647-1.943.216-1.943-.863-.216-1.079.432-2.158 1.295-2.805.864-.432 1.727 0 1.943.863zm5.611-3.237c.216 1.079-.431 2.158-1.295 2.805-.863.648-1.942.216-1.942-.863-.216-1.079.432-2.158 1.295-2.805.863-.431 1.942-.216 1.942.863zm5.828-3.236c.216 1.079-.432 2.157-1.295 2.805-.863.647-1.943.216-1.943-.863-.215-1.079.432-2.158 1.295-2.805.648-.432 1.727-.216 1.943.863zm5.612-3.237c.215 1.079-.432 2.158-1.295 2.805-.864.647-1.943.216-1.943-.863-.216-1.079.432-2.158 1.295-2.805.863-.432 1.727-.216 1.943.863zm5.611-3.237c.216 1.079-.431 2.158-1.295 2.805-.863.648-1.942.216-1.942-.863-.216-1.079.431-2.157 1.295-2.805.863-.431 1.726-.216 1.942.863zm5.612-3.236c.216 1.078-.432 2.157-1.295 2.805-.863.647-1.943.215-1.943-.863 0-1.079.432-2.158 1.295-2.806.864-.647 1.727-.215 1.943.864zm5.612-3.237c.215 1.079-.432 2.158-1.295 2.805-.864.647-1.943.216-1.943-.863-.216-1.079.432-2.158 1.295-2.805.863-.647 1.727-.216 1.943.863z" fill="#42E8E0"/><path opacity=".3" d="M362.02 565.845l-43.814-25.246c-1.727-.863-1.511-2.589.431-3.668l83.959-48.55c1.943-1.079 4.749-1.295 6.475-.216l43.815 25.246c1.726.864 1.51 2.59-.432 3.669l-83.959 48.55c-1.943 1.078-4.749 1.294-6.475.215z" fill="#0B0244"/><path d="M445.979 492.265l-5.828 1.079-41.008-23.735c-1.727-1.079-4.748-.863-6.691.216l-78.995 45.529-10.144 1.726v3.236c0 .648.432 1.295 1.079 1.727l45.757 26.325c1.727 1.078 4.748.863 6.691-.216l87.628-50.492c1.079-.648 1.727-1.511 1.727-2.158v-3.237h-.216z" fill="#312A91"/><path opacity=".5" d="M445.979 492.265l-5.828 1.079-41.008-23.735c-1.727-1.079-4.748-.863-6.691.216l-78.995 45.529-10.144 1.726v3.236c0 .648.432 1.295 1.079 1.727l45.757 26.325c1.727 1.078 4.748.863 6.691-.216l87.628-50.492c1.079-.648 1.727-1.511 1.727-2.158v-3.237h-.216z" fill="url(#paint14_radial_367_9004)"/><path d="M444.468 495.934l-87.628 50.492c-1.943 1.079-4.964 1.294-6.691.215l-45.757-26.324c-.863-.432-1.079-1.079-1.079-1.727v.863c0 .648.432 1.295 1.079 1.727l45.757 26.325c1.727 1.078 4.748.863 6.691-.216l87.628-50.492c1.079-.648 1.727-1.511 1.727-2.158v-.863a3.833 3.833 0 01-1.727 2.158z" fill="url(#paint15_radial_367_9004)"/><path d="M350.149 545.347l-45.757-26.325c-1.726-1.079-1.511-2.805.432-3.884l87.628-50.492c1.943-1.079 4.964-1.295 6.691-.216l45.757 26.325c1.726 1.079 1.511 2.805-.432 3.884l-87.628 50.492c-1.943 1.079-4.964 1.294-6.691.216z" fill="#312A91"/><path opacity=".7" d="M350.149 545.347l-45.757-26.325c-1.726-1.079-1.511-2.805.432-3.884l87.628-50.492c1.943-1.079 4.964-1.295 6.691-.216l45.757 26.325c1.726 1.079 1.511 2.805-.432 3.884l-87.628 50.492c-1.943 1.079-4.964 1.294-6.691.216z" fill="url(#paint16_linear_367_9004)"/><g opacity=".4"><path opacity=".5" d="M445.979 491.618l-5.828 1.079-41.008-23.736c-1.727-1.079-4.748-.863-6.691.216l-78.995 45.529-10.144 1.726v.648c0 .647.432 1.294 1.079 1.726l45.757 26.325c1.727 1.079 4.748.863 6.691-.216l87.628-50.492c1.079-.647 1.727-1.51 1.727-2.158v-.647h-.216z" fill="url(#paint17_radial_367_9004)"/><path opacity=".7" d="M350.149 544.699l-45.757-26.325c-1.726-1.079-1.511-2.805.432-3.884l87.628-50.492c1.943-1.079 4.964-1.294 6.691-.215l45.757 26.324c1.726 1.079 1.511 2.806-.432 3.884l-87.628 50.492c-1.943 1.079-4.964 1.295-6.691.216z" fill="url(#paint18_radial_367_9004)"/><path opacity=".4" d="M350.149 544.699l-45.757-26.325c-1.726-1.079-1.511-2.805.432-3.884l87.628-50.492c1.943-1.079 4.964-1.294 6.691-.215l45.757 26.324c1.726 1.079 1.511 2.806-.432 3.884l-87.628 50.492c-1.943 1.079-4.964 1.295-6.691.216z" fill="#312A91"/></g><path d="M338.926 540.815c0 .432-.216.432-.432.216s-.432-.647-.432-.863c0-.216.216-.432.432-.216.216 0 .432.432.432.863zm2.158 1.079c0 .432-.216.432-.432.216s-.431-.648-.431-.863c0-.432.215-.432.431-.216 0 .216.432.431.432.863zm1.942 1.079c0 .432-.215.432-.431.216s-.432-.647-.432-.863c0-.432.216-.432.432-.216s.431.647.431.863zm-31.943-18.341c0 .432-.216.432-.432.216-.215-.216-.431-.648-.431-.863 0-.216.216-.432.431-.216.216.216.432.647.432.863zm2.158 1.295c0 .431-.215.431-.431.215-.216-.215-.432-.647-.432-.863 0-.215.216-.431.432-.216 0 0 .431.432.431.864zm1.943 1.079c0 .431-.216.431-.432.215-.216-.215-.431-.647-.431-.863 0-.431.215-.431.431-.216.216.216.432.432.432.864z" fill="#180D5B"/><path opacity=".5" d="M350.149 544.699l-45.757-26.325c-1.726-1.079-1.511-2.805.432-3.884l87.628-50.492c1.943-1.079 4.964-1.294 6.691-.215l45.757 26.324c1.726 1.079 1.511 2.806-.432 3.884l-87.628 50.492c-1.943 1.079-4.964 1.295-6.691.216z" fill="url(#paint19_radial_367_9004)"/><path opacity=".5" d="M350.149 544.699l-45.757-26.325c-1.726-1.079-1.511-2.805.432-3.884l87.628-50.492c1.943-1.079 4.964-1.294 6.691-.215l45.757 26.324c1.726 1.079 1.511 2.806-.432 3.884l-87.628 50.492c-1.943 1.079-4.964 1.295-6.691.216z" fill="url(#paint20_radial_367_9004)"/><path opacity=".9" d="M351.012 544.699l-45.756-26.325c-1.943-1.078-2.159-2.373.431-3.884l87.629-50.492c.863-.431 1.942-.863 3.021-.863-1.295 0-2.806.216-3.885.863l-87.628 50.492c-1.943 1.079-2.158 2.806-.432 3.884l45.757 26.325c.863.648 2.374.648 3.669.648-1.079 0-2.158-.216-2.806-.648z" fill="url(#paint21_radial_367_9004)"/><path d="M328.997 534.989c0 .432-.216.648-.647.432l-3.669-2.158c-.216-.216-.648-.647-.648-1.079 0-.431.216-.647.648-.431l3.669 2.157c.216.216.647.648.647 1.079z" fill="#180D5B"/><path opacity=".2" d="M432.813 495.934c.432.215.432.863 0 1.078-.432.216-1.295.216-1.942 0-.432-.215-.432-.863 0-1.078.431-.216 1.295-.216 1.942 0z" fill="#FCCC6B"/><path opacity=".6" d="M435.619 494.423c.432.216.432.863 0 1.079-.432.216-1.295.216-1.943 0-.431-.216-.431-.863 0-1.079.648-.432 1.511-.432 1.943 0z" fill="#FCCC6B"/><path d="M438.641 492.697c.431.216.431.863 0 1.079-.432.216-1.295.216-1.943 0-.647-.216-.432-.863 0-1.079.432-.216 1.295-.432 1.943 0z" fill="#FCCC6B"/><path opacity=".3" d="M568.788 556.136l-140.939-81.349c-1.727-.863-1.511-2.589.432-3.668l83.959-48.55c1.942-1.079 4.748-1.295 6.475-.216l140.939 81.349c1.727.863 1.511 2.589-.432 3.668l-83.959 48.55c-1.942 1.079-4.748 1.079-6.475.216z" fill="#0B0244"/><path d="M652.747 482.555l-5.827 1.079-138.134-79.838c-1.726-1.078-4.748-.863-6.69.216l-78.995 45.529-10.145 1.727v3.236c0 .648.432 1.295 1.08 1.726l142.881 82.428c1.727 1.078 4.749.863 6.691-.216l87.628-50.492c1.08-.648 1.727-1.511 1.727-2.158v-3.237h-.216z" fill="#312A91"/><path opacity=".5" d="M652.747 482.555l-5.827 1.079-138.134-79.838c-1.726-1.078-4.748-.863-6.69.216l-78.995 45.529-10.145 1.727v3.236c0 .648.432 1.295 1.08 1.726l142.881 82.428c1.727 1.078 4.749.863 6.691-.216l87.628-50.492c1.08-.648 1.727-1.511 1.727-2.158v-3.237h-.216z" fill="url(#paint22_radial_367_9004)"/><path d="M651.236 486.008l-87.628 50.708c-1.942 1.078-4.964 1.294-6.691.215l-142.881-82.427c-.864-.431-1.08-1.079-1.08-1.726v.863c0 .648.432 1.295 1.08 1.726l142.881 82.427c1.727 1.079 4.749.864 6.691-.215l87.628-50.492c1.08-.648 1.727-1.511 1.727-2.158v-.863c-.216.647-.647 1.51-1.727 1.942z" fill="url(#paint23_radial_367_9004)"/><path d="M556.917 535.637L414.036 453.21c-1.727-1.079-1.511-2.806.431-3.884l87.629-50.492c1.942-1.079 4.964-1.295 6.69-.216l142.882 82.427c1.727 1.079 1.511 2.805-.432 3.884l-87.628 50.492c-1.942 1.079-4.964 1.079-6.691.216z" fill="#312A91"/><path opacity=".7" d="M556.917 535.637L414.036 453.21c-1.727-1.079-1.511-2.806.431-3.884l87.629-50.492c1.942-1.079 4.964-1.295 6.69-.216l142.882 82.427c1.727 1.079 1.511 2.805-.432 3.884l-87.628 50.492c-1.942 1.079-4.964 1.079-6.691.216z" fill="url(#paint24_linear_367_9004)"/><g opacity=".4"><path opacity=".5" d="M652.747 481.908l-5.827 1.079-138.134-79.838c-1.726-1.079-4.748-.863-6.69.216l-78.995 45.529-10.145 1.726v.648c0 .647.432 1.294 1.08 1.726l142.881 82.427c1.727 1.079 4.749.863 6.691-.216l87.628-50.492c1.08-.647 1.727-1.51 1.727-2.158v-.647h-.216z" fill="url(#paint25_radial_367_9004)"/><path opacity=".7" d="M556.917 534.989l-142.881-82.427c-1.727-1.079-1.511-2.805.431-3.884l87.629-50.492c1.942-1.079 4.964-1.294 6.69-.215l142.882 82.427c1.727 1.079 1.511 2.805-.432 3.884l-87.628 50.276c-1.942 1.294-4.964 1.295-6.691.431z" fill="url(#paint26_radial_367_9004)"/><path opacity=".4" d="M556.917 534.989l-142.881-82.427c-1.727-1.079-1.511-2.805.431-3.884l87.629-50.492c1.942-1.079 4.964-1.294 6.69-.215l142.882 82.427c1.727 1.079 1.511 2.805-.432 3.884l-87.628 50.276c-1.942 1.294-4.964 1.295-6.691.431z" fill="#312A91"/></g><path opacity=".5" d="M556.917 534.989l-142.881-82.427c-1.727-1.079-1.511-2.805.431-3.884l87.629-50.492c1.942-1.079 4.964-1.294 6.69-.215l142.882 82.427c1.727 1.079 1.511 2.805-.432 3.884l-87.628 50.276c-1.942 1.294-4.964 1.295-6.691.431z" fill="url(#paint27_radial_367_9004)"/><path opacity=".5" d="M556.917 534.989l-142.881-82.427c-1.727-1.079-1.511-2.805.431-3.884l87.629-50.492c1.942-1.079 4.964-1.294 6.69-.215l142.882 82.427c1.727 1.079 1.511 2.805-.432 3.884l-87.628 50.276c-1.942 1.294-4.964 1.295-6.691.431z" fill="url(#paint28_radial_367_9004)"/><path opacity=".6" d="M561.881 428.395l-53.095-30.64c-1.726-1.079-4.748-.863-6.69.216l-49.21 28.482 108.995 1.942z" fill="url(#paint29_radial_367_9004)"/><path opacity=".9" d="M557.781 534.989l-142.882-82.427c-1.943-1.079-2.158-2.373.432-3.884l87.628-50.492c.863-.431 1.942-.863 3.022-.863-1.295 0-2.806.216-3.885.863l-87.629 50.492c-1.942 1.079-2.158 2.805-.431 3.884l142.881 82.427c.864.648 2.159.648 3.669.648-1.079 0-2.158-.216-2.805-.648z" fill="url(#paint30_radial_367_9004)"/><path opacity=".2" d="M639.581 486.224c.432.215.432.863 0 1.079-.431.215-1.295.215-1.942 0-.432-.216-.432-.864 0-1.079.432-.216 1.295-.216 1.942 0z" fill="#FCCC6B"/><path opacity=".6" d="M642.387 484.497c.432.216.432.863 0 1.079-.431.216-1.295.216-1.942 0-.432-.216-.432-.863 0-1.079.431-.215 1.511-.215 1.942 0z" fill="#FCCC6B"/><path d="M645.409 482.771c.432.216.432.863 0 1.079-.432.216-1.295.216-1.943 0-.431-.216-.431-.863 0-1.079.432-.216 1.295-.216 1.943 0z" fill="#FCCC6B"/><path d="M595.336 518.806c0 .432.215.432.647.216.216-.216.648-.647.648-.863 0-.432-.216-.432-.648-.216-.432 0-.647.432-.647.863zm-2.159 1.295c0 .431.216.431.648.216.216-.216.647-.648.647-.864 0-.431-.216-.431-.647-.215-.432 0-.648.431-.648.863zm-2.158 1.294c0 .432.216.432.647.216.216-.216.648-.647.648-.863 0-.431-.216-.431-.648-.216-.431 0-.647.432-.647.863zm34.749-20.067c0 .432.216.432.648.216.215-.216.647-.648.647-.863 0-.432-.216-.432-.647-.216-.432 0-.648.432-.648.863zm-2.374 1.295c0 .431.216.431.648.216.215-.216.647-.648.647-.864 0-.431-.216-.431-.647-.215-.216 0-.648.431-.648.863zm-2.158 1.294c0 .432.215.432.647.216.216-.216.648-.647.648-.863 0-.431-.216-.431-.648-.216-.432 0-.647.432-.647.863zm-14.893 8.632c0 .431.216.647.648.431l3.885-2.158c.431-.215.647-.647.647-1.078 0-.432-.216-.648-.647-.432l-3.885 2.158c-.432 0-.648.647-.648 1.079z" fill="#180D5B"/><path d="M559.723 529.811c-1.295 0-2.374-.216-3.237-.863l-142.882-82.427c-1.079-.648-1.511-1.295-1.511-2.374 0-1.079.648-2.158 1.943-2.805l87.628-50.492c2.158-1.295 5.396-1.295 7.338-.216l142.882 82.427c1.079.648 1.511 1.295 1.511 2.374 0 1.079-.648 2.158-1.943 2.805l-87.628 50.492c-1.079.647-2.59 1.079-4.101 1.079zm-2.374-1.942c1.511.863 4.317.647 6.043-.216l87.629-50.492c.863-.432 1.294-1.079 1.294-1.51 0-.432-.431-.863-.863-1.079l-142.881-82.427c-1.511-.864-4.317-.648-6.044.215l-87.628 50.492c-.863.432-1.295 1.079-1.295 1.511 0 .431.432.863.863 1.079l142.882 82.427z" fill="#42E8E0"/><path opacity=".8" d="M559.723 510.175c-1.295 0-2.374-.216-3.237-.863l-142.882-82.427c-1.079-.648-1.511-1.295-1.511-2.374 0-1.079.648-2.158 1.943-2.805l87.628-50.492c2.158-1.295 5.396-1.295 7.338-.216l142.882 82.427c1.079.648 1.511 1.295 1.511 2.374 0 1.079-.648 2.158-1.943 2.805l-87.628 50.492c-1.079.863-2.59 1.079-4.101 1.079zm-2.374-1.942c1.511.863 4.101.647 6.043-.216l87.629-50.492c.863-.432 1.294-1.079 1.294-1.51 0-.432-.431-.864-.863-1.079l-142.881-82.427c-1.511-.864-4.101-.648-6.044.215l-87.628 50.492c-.863.432-1.295 1.079-1.295 1.511 0 .431.432.863.863 1.079l142.882 82.427z" fill="#42E8E0"/><path opacity=".5" d="M559.723 490.755c-1.295 0-2.374-.216-3.237-.863l-142.882-82.427c-1.079-.648-1.511-1.295-1.511-2.374 0-1.079.648-2.158 1.943-2.805l87.628-50.492c2.158-1.295 5.396-1.295 7.338-.216l142.882 82.427c1.079.648 1.511 1.295 1.511 2.374 0 1.079-.648 2.158-1.943 2.805l-87.628 50.492c-1.079.647-2.59 1.079-4.101 1.079zm-2.374-2.158c1.511.863 4.101.647 6.043-.216l87.629-50.492c.863-.431 1.294-1.079 1.294-1.51 0-.432-.431-.863-.863-1.079l-142.881-82.427c-1.511-.863-4.101-.647-6.044.216l-87.628 50.492c-.863.431-1.295 1.079-1.295 1.51 0 .432.432.863.863 1.079l142.882 82.427z" fill="#42E8E0"/><path opacity=".2" d="M556.917 489.244l-142.881-82.427c-1.727-1.079-1.511-2.805.431-3.884l87.629-50.492c1.942-1.079 4.964-1.294 6.69-.216l142.882 82.428c1.727 1.078 1.511 2.805-.432 3.884l-87.628 50.492c-1.942 1.078-4.964 1.294-6.691.215z" fill="#42E8E0"/><path d="M362.667 506.507l7.123 4.1-7.123 4.099-7.122-4.099 7.122-4.1zm25.469-14.673l7.122 4.1-18.346 10.573-7.122-4.1 18.346-10.573z" fill="#42E8E0"/><defs><radialGradient id="paint0_radial_367_9004" cx="0" cy="0" r="1" gradientUnits="userSpaceOnUse" gradientTransform="matrix(279.804 0 0 279.732 85.477 437.155)"><stop stop-color="#42E8E0"/><stop offset=".016" stop-color="#40D8D7"/><stop offset=".061" stop-color="#3AAFC0"/><stop offset=".111" stop-color="#3589AC"/><stop offset=".166" stop-color="#30699A"/><stop offset=".227" stop-color="#2C4D8B"/><stop offset=".296" stop-color="#29377F"/><stop offset=".376" stop-color="#272675"/><stop offset=".475" stop-color="#251B6F"/><stop offset=".614" stop-color="#24146B"/><stop offset="1" stop-color="#24126A"/></radialGradient><radialGradient id="paint1_radial_367_9004" cx="0" cy="0" r="1" gradientUnits="userSpaceOnUse" gradientTransform="matrix(495.491 0 0 495.363 263.936 520.365)"><stop stop-color="#42E8E0"/><stop offset=".102" stop-color="#3CCACE"/><stop offset=".344" stop-color="#2F87A5"/><stop offset=".564" stop-color="#255385"/><stop offset=".753" stop-color="#1E2D6E"/><stop offset=".905" stop-color="#1A1660"/><stop offset="1" stop-color="#180D5B"/></radialGradient><radialGradient id="paint3_radial_367_9004" cx="0" cy="0" r="1" gradientUnits="userSpaceOnUse" gradientTransform="matrix(143.261 0 0 143.224 135.41 437.376)"><stop stop-color="#42E8E0"/><stop offset=".102" stop-color="#3CCACE"/><stop offset=".344" stop-color="#2F87A5"/><stop offset=".564" stop-color="#255385"/><stop offset=".753" stop-color="#1E2D6E"/><stop offset=".905" stop-color="#1A1660"/><stop offset="1" stop-color="#180D5B"/></radialGradient><radialGradient id="paint4_radial_367_9004" cx="0" cy="0" r="1" gradientUnits="userSpaceOnUse" gradientTransform="matrix(295.298 0 0 295.222 143.425 405.507)"><stop stop-color="#42E8E0"/><stop offset=".102" stop-color="#3CCACE"/><stop offset=".344" stop-color="#2F87A5"/><stop offset=".564" stop-color="#255385"/><stop offset=".753" stop-color="#1E2D6E"/><stop offset=".905" stop-color="#1A1660"/><stop offset="1" stop-color="#180D5B"/></radialGradient><radialGradient id="paint5_radial_367_9004" cx="0" cy="0" r="1" gradientUnits="userSpaceOnUse" gradientTransform="matrix(241.662 0 0 241.599 166.85 419.695)"><stop stop-color="#42E8E0"/><stop offset=".102" stop-color="#3CCACE"/><stop offset=".344" stop-color="#2F87A5"/><stop offset=".564" stop-color="#255385"/><stop offset=".753" stop-color="#1E2D6E"/><stop offset=".905" stop-color="#1A1660"/><stop offset="1" stop-color="#180D5B"/></radialGradient><radialGradient id="paint6_radial_367_9004" cx="0" cy="0" r="1" gradientUnits="userSpaceOnUse" gradientTransform="matrix(482.14 0 0 482.016 100.582 420.928)"><stop stop-color="#42E8E0"/><stop offset=".102" stop-color="#3CCACE"/><stop offset=".344" stop-color="#2F87A5"/><stop offset=".564" stop-color="#255385"/><stop offset=".753" stop-color="#1E2D6E"/><stop offset=".905" stop-color="#1A1660"/><stop offset="1" stop-color="#180D5B"/></radialGradient><radialGradient id="paint7_radial_367_9004" cx="0" cy="0" r="1" gradientUnits="userSpaceOnUse" gradientTransform="matrix(424.484 0 0 424.375 135.692 419.694)"><stop stop-color="#42E8E0"/><stop offset=".102" stop-color="#3CCACE"/><stop offset=".344" stop-color="#2F87A5"/><stop offset=".564" stop-color="#255385"/><stop offset=".753" stop-color="#1E2D6E"/><stop offset=".905" stop-color="#1A1660"/><stop offset="1" stop-color="#180D5B"/></radialGradient><radialGradient id="paint10_radial_367_9004" cx="0" cy="0" r="1" gradientUnits="userSpaceOnUse" gradientTransform="matrix(622.274 0 0 622.114 147.867 234.264)"><stop stop-color="#42E8E0"/><stop offset=".102" stop-color="#3CCACE"/><stop offset=".344" stop-color="#2F87A5"/><stop offset=".564" stop-color="#255385"/><stop offset=".753" stop-color="#1E2D6E"/><stop offset=".905" stop-color="#1A1660"/><stop offset="1" stop-color="#180D5B"/></radialGradient><radialGradient id="paint11_radial_367_9004" cx="0" cy="0" r="1" gradientUnits="userSpaceOnUse" gradientTransform="matrix(25.1905 0 0 25.1837 113.276 266.132)"><stop stop-color="#42E8E0"/><stop offset=".102" stop-color="#3CCACE"/><stop offset=".344" stop-color="#2F87A5"/><stop offset=".564" stop-color="#255385"/><stop offset=".753" stop-color="#1E2D6E"/><stop offset=".905" stop-color="#1A1660"/><stop offset="1" stop-color="#180D5B"/></radialGradient><radialGradient id="paint13_radial_367_9004" cx="0" cy="0" r="1" gradientUnits="userSpaceOnUse" gradientTransform="matrix(226.981 0 0 226.923 201.733 210.339)"><stop stop-color="#42E8E0"/><stop offset=".102" stop-color="#3CCACE"/><stop offset=".344" stop-color="#2F87A5"/><stop offset=".564" stop-color="#255385"/><stop offset=".753" stop-color="#1E2D6E"/><stop offset=".905" stop-color="#1A1660"/><stop offset="1" stop-color="#180D5B"/></radialGradient><radialGradient id="paint14_radial_367_9004" cx="0" cy="0" r="1" gradientUnits="userSpaceOnUse" gradientTransform="matrix(112.373 0 0 112.344 281.771 520.498)"><stop stop-color="#42E8E0"/><stop offset=".016" stop-color="#40D8D7"/><stop offset=".061" stop-color="#3AAFC0"/><stop offset=".111" stop-color="#3589AC"/><stop offset=".166" stop-color="#30699A"/><stop offset=".227" stop-color="#2C4D8B"/><stop offset=".296" stop-color="#29377F"/><stop offset=".376" stop-color="#272675"/><stop offset=".475" stop-color="#251B6F"/><stop offset=".614" stop-color="#24146B"/><stop offset="1" stop-color="#24126A"/></radialGradient><radialGradient id="paint15_radial_367_9004" cx="0" cy="0" r="1" gradientUnits="userSpaceOnUse" gradientTransform="matrix(199.138 0 0 199.087 353.477 553.19)"><stop stop-color="#42E8E0"/><stop offset=".102" stop-color="#3CCACE"/><stop offset=".344" stop-color="#2F87A5"/><stop offset=".564" stop-color="#255385"/><stop offset=".753" stop-color="#1E2D6E"/><stop offset=".905" stop-color="#1A1660"/><stop offset="1" stop-color="#180D5B"/></radialGradient><radialGradient id="paint17_radial_367_9004" cx="0" cy="0" r="1" gradientUnits="userSpaceOnUse" gradientTransform="matrix(57.4898 0 0 57.475 301.834 519.096)"><stop stop-color="#42E8E0"/><stop offset=".102" stop-color="#3CCACE"/><stop offset=".344" stop-color="#2F87A5"/><stop offset=".564" stop-color="#255385"/><stop offset=".753" stop-color="#1E2D6E"/><stop offset=".905" stop-color="#1A1660"/><stop offset="1" stop-color="#180D5B"/></radialGradient><radialGradient id="paint18_radial_367_9004" cx="0" cy="0" r="1" gradientUnits="userSpaceOnUse" gradientTransform="matrix(118.646 0 0 118.615 305.054 504.912)"><stop stop-color="#42E8E0"/><stop offset=".102" stop-color="#3CCACE"/><stop offset=".344" stop-color="#2F87A5"/><stop offset=".564" stop-color="#255385"/><stop offset=".753" stop-color="#1E2D6E"/><stop offset=".905" stop-color="#1A1660"/><stop offset="1" stop-color="#180D5B"/></radialGradient><radialGradient id="paint19_radial_367_9004" cx="0" cy="0" r="1" gradientUnits="userSpaceOnUse" gradientTransform="matrix(97.0965 0 0 97.0715 314.467 510.607)"><stop stop-color="#42E8E0"/><stop offset=".102" stop-color="#3CCACE"/><stop offset=".344" stop-color="#2F87A5"/><stop offset=".564" stop-color="#255385"/><stop offset=".753" stop-color="#1E2D6E"/><stop offset=".905" stop-color="#1A1660"/><stop offset="1" stop-color="#180D5B"/></radialGradient><radialGradient id="paint20_radial_367_9004" cx="0" cy="0" r="1" gradientUnits="userSpaceOnUse" gradientTransform="matrix(137.248 0 0 137.213 301.834 511.103)"><stop stop-color="#42E8E0"/><stop offset=".102" stop-color="#3CCACE"/><stop offset=".344" stop-color="#2F87A5"/><stop offset=".564" stop-color="#255385"/><stop offset=".753" stop-color="#1E2D6E"/><stop offset=".905" stop-color="#1A1660"/><stop offset="1" stop-color="#180D5B"/></radialGradient><radialGradient id="paint21_radial_367_9004" cx="0" cy="0" r="1" gradientUnits="userSpaceOnUse" gradientTransform="matrix(183.368 0 0 183.321 301.834 510.607)"><stop stop-color="#42E8E0"/><stop offset=".102" stop-color="#3CCACE"/><stop offset=".344" stop-color="#2F87A5"/><stop offset=".564" stop-color="#255385"/><stop offset=".753" stop-color="#1E2D6E"/><stop offset=".905" stop-color="#1A1660"/><stop offset="1" stop-color="#180D5B"/></radialGradient><radialGradient id="paint22_radial_367_9004" cx="0" cy="0" r="1" gradientUnits="userSpaceOnUse" gradientTransform="matrix(188.829 0 0 188.78 376.837 490.502)"><stop stop-color="#42E8E0"/><stop offset=".016" stop-color="#40D8D7"/><stop offset=".061" stop-color="#3AAFC0"/><stop offset=".111" stop-color="#3589AC"/><stop offset=".166" stop-color="#30699A"/><stop offset=".227" stop-color="#2C4D8B"/><stop offset=".296" stop-color="#29377F"/><stop offset=".376" stop-color="#272675"/><stop offset=".475" stop-color="#251B6F"/><stop offset=".614" stop-color="#24146B"/><stop offset="1" stop-color="#24126A"/></radialGradient><radialGradient id="paint23_radial_367_9004" cx="0" cy="0" r="1" gradientUnits="userSpaceOnUse" gradientTransform="matrix(334.462 0 0 334.376 497.292 546.188)"><stop stop-color="#42E8E0"/><stop offset=".102" stop-color="#3CCACE"/><stop offset=".344" stop-color="#2F87A5"/><stop offset=".564" stop-color="#255385"/><stop offset=".753" stop-color="#1E2D6E"/><stop offset=".905" stop-color="#1A1660"/><stop offset="1" stop-color="#180D5B"/></radialGradient><radialGradient id="paint25_radial_367_9004" cx="0" cy="0" r="1" gradientUnits="userSpaceOnUse" gradientTransform="matrix(96.6554 0 0 96.6305 410.541 489.84)"><stop stop-color="#42E8E0"/><stop offset=".102" stop-color="#3CCACE"/><stop offset=".344" stop-color="#2F87A5"/><stop offset=".564" stop-color="#255385"/><stop offset=".753" stop-color="#1E2D6E"/><stop offset=".905" stop-color="#1A1660"/><stop offset="1" stop-color="#180D5B"/></radialGradient><radialGradient id="paint26_radial_367_9004" cx="0" cy="0" r="1" gradientUnits="userSpaceOnUse" gradientTransform="matrix(199.308 0 0 199.257 415.95 467.588)"><stop stop-color="#42E8E0"/><stop offset=".102" stop-color="#3CCACE"/><stop offset=".344" stop-color="#2F87A5"/><stop offset=".564" stop-color="#255385"/><stop offset=".753" stop-color="#1E2D6E"/><stop offset=".905" stop-color="#1A1660"/><stop offset="1" stop-color="#180D5B"/></radialGradient><radialGradient id="paint27_radial_367_9004" cx="0" cy="0" r="1" gradientUnits="userSpaceOnUse" gradientTransform="matrix(163.108 0 0 163.066 431.761 477.158)"><stop stop-color="#42E8E0"/><stop offset=".102" stop-color="#3CCACE"/><stop offset=".344" stop-color="#2F87A5"/><stop offset=".564" stop-color="#255385"/><stop offset=".753" stop-color="#1E2D6E"/><stop offset=".905" stop-color="#1A1660"/><stop offset="1" stop-color="#180D5B"/></radialGradient><radialGradient id="paint28_radial_367_9004" cx="0" cy="0" r="1" gradientUnits="userSpaceOnUse" gradientTransform="matrix(230.557 0 0 230.498 410.541 477.99)"><stop stop-color="#42E8E0"/><stop offset=".102" stop-color="#3CCACE"/><stop offset=".344" stop-color="#2F87A5"/><stop offset=".564" stop-color="#255385"/><stop offset=".753" stop-color="#1E2D6E"/><stop offset=".905" stop-color="#1A1660"/><stop offset="1" stop-color="#180D5B"/></radialGradient><radialGradient id="paint29_radial_367_9004" cx="0" cy="0" r="1" gradientUnits="userSpaceOnUse" gradientTransform="matrix(118.939 0 0 118.908 338.423 415.618)"><stop stop-color="#42E8E0"/><stop offset=".102" stop-color="#3CCACE"/><stop offset=".344" stop-color="#2F87A5"/><stop offset=".564" stop-color="#255385"/><stop offset=".753" stop-color="#1E2D6E"/><stop offset=".905" stop-color="#1A1660"/><stop offset="1" stop-color="#180D5B"/></radialGradient><radialGradient id="paint30_radial_367_9004" cx="0" cy="0" r="1" gradientUnits="userSpaceOnUse" gradientTransform="matrix(292.695 0 0 292.62 410.675 477.157)"><stop stop-color="#42E8E0"/><stop offset=".102" stop-color="#3CCACE"/><stop offset=".344" stop-color="#2F87A5"/><stop offset=".564" stop-color="#255385"/><stop offset=".753" stop-color="#1E2D6E"/><stop offset=".905" stop-color="#1A1660"/><stop offset="1" stop-color="#180D5B"/></radialGradient><linearGradient id="paint2_linear_367_9004" x1="138.938" y1="404.352" x2="494.353" y2="404.352" gradientUnits="userSpaceOnUse"><stop stop-color="#180D5B"/><stop offset=".095" stop-color="#1A1660"/><stop offset=".247" stop-color="#1E2D6E"/><stop offset=".436" stop-color="#255385"/><stop offset=".655" stop-color="#2F87A5"/><stop offset=".898" stop-color="#3CCACE"/><stop offset="1" stop-color="#42E8E0"/></linearGradient><linearGradient id="paint8_linear_367_9004" x1="157.779" y1="201.117" x2="314.274" y2="373.425" gradientUnits="userSpaceOnUse"><stop stop-color="#42E8E0"/><stop offset=".074" stop-color="#3ED2D3"/><stop offset=".285" stop-color="#3297AF"/><stop offset=".347" stop-color="#2F87A5"/><stop offset=".565" stop-color="#255385"/><stop offset=".754" stop-color="#1E2D6E"/><stop offset=".905" stop-color="#1A1560"/><stop offset="1" stop-color="#180D5B"/></linearGradient><linearGradient id="paint9_linear_367_9004" x1="117.41" y1="283.82" x2="350.55" y2="283.82" gradientUnits="userSpaceOnUse"><stop stop-color="#2B237C"/><stop offset="1" stop-color="#180D5B"/></linearGradient><linearGradient id="paint12_linear_367_9004" x1="187.643" y1="226.74" x2="322.291" y2="393.076" gradientUnits="userSpaceOnUse"><stop stop-color="#42E8E0"/><stop offset=".102" stop-color="#3CCACE"/><stop offset=".344" stop-color="#2F87A5"/><stop offset=".564" stop-color="#255385"/><stop offset=".753" stop-color="#1E2D6E"/><stop offset=".905" stop-color="#1A1660"/><stop offset="1" stop-color="#180D5B"/></linearGradient><linearGradient id="paint16_linear_367_9004" x1="303.251" y1="504.865" x2="446.061" y2="504.865" gradientUnits="userSpaceOnUse"><stop stop-color="#180D5B"/><stop offset=".095" stop-color="#1A1660"/><stop offset=".247" stop-color="#1E2D6E"/><stop offset=".436" stop-color="#255385"/><stop offset=".655" stop-color="#2F87A5"/><stop offset=".898" stop-color="#3CCACE"/><stop offset="1" stop-color="#42E8E0"/></linearGradient><linearGradient id="paint24_linear_367_9004" x1="412.921" y1="467.036" x2="652.819" y2="467.036" gradientUnits="userSpaceOnUse"><stop stop-color="#180D5B"/><stop offset=".095" stop-color="#1A1660"/><stop offset=".247" stop-color="#1E2D6E"/><stop offset=".436" stop-color="#255385"/><stop offset=".655" stop-color="#2F87A5"/><stop offset=".898" stop-color="#3CCACE"/><stop offset="1" stop-color="#42E8E0"/></linearGradient></defs></svg>