<svg width="93" height="94" fill="none" xmlns="http://www.w3.org/2000/svg"><path fill-rule="evenodd" clip-rule="evenodd" d="M46.011 0c5.04 0 9.892.81 14.43 2.308v1.055A44.958 44.958 0 0046.012 1C21.152 1 1 21.152 1 46.011a44.811 44.811 0 008.935 26.922v1.64A45.816 45.816 0 010 46.01C0 20.6 20.6 0 46.011 0zM13.136 78.202c8.352 8.529 19.996 13.82 32.875 13.82 12.88 0 24.524-5.291 32.876-13.82h-.13v-1.308c-8.207 8.7-19.842 14.129-32.746 14.129-12.244 0-23.346-4.889-31.46-12.82h-1.415zm70.394-5.55a45.801 45.801 0 008.493-26.64c0-3.431-.376-6.775-1.088-9.991H89.91a45.161 45.161 0 011.113 9.99 44.81 44.81 0 01-8.727 26.641h1.234zM65.992 4.553c10.8 5.215 19.253 14.526 23.34 25.918h-1.064C84.28 19.633 76.244 10.754 65.992 5.667V4.553z" fill="#fff"/><path fill-rule="evenodd" clip-rule="evenodd" d="M1.629 30.472h3.193-3.193zm10.122 47.731c8.575 9.123 20.752 14.82 34.26 14.82s25.686-5.697 34.26-14.82h-4.248c-7.862 7.333-18.413 11.82-30.012 11.82S23.861 85.536 16 78.203h-4.248zM87.2 30.472h3.193C86.28 18.722 77.63 9.102 66.547 3.71v3.364c9.44 4.989 16.846 13.31 20.654 23.397z" fill="#fff"/><path d="M34.749 55.755l21.488-21.489m0 0l-.336 13.095m.336-13.094l-13.094.335" stroke="#fff" stroke-width="1.5"/></svg>