<svg width="20" height="20" fill="none" xmlns="http://www.w3.org/2000/svg"><path d="M18.945 6.018a6.144 6.144 0 00-.395-2.089 4.344 4.344 0 00-2.486-2.481A6.245 6.245 0 0014 1.052C13.092 1.012 12.804 1 10.5 1c-2.306 0-2.602 0-3.503.052a6.245 6.245 0 00-2.063.396 4.35 4.35 0 00-2.486 2.481 6.168 6.168 0 00-.395 2.06C2.013 6.895 2 7.182 2 9.484c0 2.301 0 2.595.053 3.496.014.705.147 1.4.395 2.062a4.344 4.344 0 002.487 2.48 6.204 6.204 0 002.063.424c.909.04 1.197.053 3.502.053 2.305 0 2.6 0 3.502-.053a6.228 6.228 0 002.064-.395 4.357 4.357 0 002.486-2.481 6.2 6.2 0 00.395-2.061c.04-.907.053-1.194.053-3.497-.002-2.301-.002-2.593-.055-3.495zm-8.452 7.82A4.36 4.36 0 016.13 9.48a4.36 4.36 0 014.364-4.357 4.37 4.37 0 013.086 1.276 4.353 4.353 0 010 6.162 4.368 4.368 0 01-3.086 1.276zm4.538-7.86a1.018 1.018 0 01-1.017-1.016 1.014 1.014 0 011.017-1.015 1.019 1.019 0 011.017 1.015c0 .562-.455 1.016-1.017 1.016z" fill="#fff"/><path d="M10.5 12a2.5 2.5 0 100-5 2.5 2.5 0 000 5z" fill="#fff"/></svg>