<svg width="20" height="20" fill="none" xmlns="http://www.w3.org/2000/svg"><path d="M6.29 17c7.547 0 11.675-5.77 11.675-10.774 0-.164-.004-.327-.012-.49A8.024 8.024 0 0020 3.776a8.726 8.726 0 01-2.356.596c.847-.47 1.497-1.21 1.804-2.095a8.659 8.659 0 01-2.606.92C16.094 2.46 15.027 2 13.847 2c-2.266 0-4.104 1.696-4.104 3.786 0 .297.037.586.107.864-3.41-.159-6.435-1.665-8.458-3.957a3.558 3.558 0 00-.556 1.904c0 1.313.725 2.473 1.826 3.152a4.334 4.334 0 01-1.858-.474v.048c0 1.834 1.414 3.365 3.291 3.712a4.441 4.441 0 01-1.853.065c.522 1.505 2.037 2.6 3.833 2.63-1.404 1.016-3.173 1.621-5.096 1.621A9.05 9.05 0 010 15.299 12.33 12.33 0 006.29 17" fill="#fff"/></svg>