<svg width="20" height="20" fill="none" xmlns="http://www.w3.org/2000/svg"><path d="M16.261 4.182a.046.046 0 00-.023-.021A14.628 14.628 0 0012.574 3a.054.054 0 00-.059.028c-.168.311-.32.63-.456.957a13.433 13.433 0 00-4.115 0 9.758 9.758 0 00-.463-.957.058.058 0 00-.06-.028 14.587 14.587 0 00-3.663 1.16.053.053 0 00-.024.02C1.4 7.74.76 11.21 1.074 14.637a.064.064 0 00.024.043 14.816 14.816 0 004.494 2.318.057.057 0 00.063-.021c.348-.482.655-.992.92-1.526a.06.06 0 00-.01-.068.056.056 0 00-.021-.013 9.745 9.745 0 01-1.404-.683.058.058 0 01-.029-.047.06.06 0 01.023-.05c.095-.073.188-.147.279-.223a.054.054 0 01.058-.008c2.946 1.372 6.135 1.372 9.046 0a.054.054 0 01.03-.006c.011.002.02.006.029.013.091.077.185.151.28.224a.059.059 0 01.023.05.06.06 0 01-.028.047 9.158 9.158 0 01-1.405.682.056.056 0 00-.033.034.058.058 0 00.002.048c.27.53.577 1.04.919 1.526a.05.05 0 00.028.02.056.056 0 00.035.001A14.765 14.765 0 0018.9 14.68a.06.06 0 00.023-.042c.376-3.962-.628-7.404-2.66-10.455zM7.015 12.55c-.887 0-1.618-.83-1.618-1.85 0-1.021.717-1.852 1.618-1.852.908 0 1.632.838 1.618 1.851 0 1.02-.717 1.851-1.618 1.851zm5.981 0c-.887 0-1.618-.83-1.618-1.85 0-1.021.717-1.852 1.618-1.852.908 0 1.632.838 1.618 1.851 0 1.02-.71 1.851-1.618 1.851z" fill="#fff"/></svg>