<svg width="450" height="450" fill="none" xmlns="http://www.w3.org/2000/svg"><path fill-rule="evenodd" clip-rule="evenodd" d="M224 .003c-22.237.097-43.713 3.42-63.984 9.524l5.876 16.215c18.431-5.459 37.93-8.43 58.108-8.525V.003zm-191.59 108.6c28.324-46.764 73.2-82.386 126.504-98.74l5.875 16.21c-49.473 14.954-91.154 47.86-117.466 91.14l-14.913-8.61zM7.455 167.352C2.59 185.752 0 205.076 0 225.005l.001.648h17.214v-.648c0-18.388 2.387-36.217 6.87-53.196l-16.63-4.457zm.296-1.108l16.63 4.456a206.493 206.493 0 0119.463-47.544l-14.91-8.609A223.6 223.6 0 007.75 166.244zm22.234 171.061C11.192 304.74.322 267.027.008 226.8h17.214c.314 37.091 10.345 71.864 27.673 101.897l-14.91 8.608zm15.486-7.616l-14.91 8.609a226.108 226.108 0 0082.07 81.685l8.608-14.91a208.814 208.814 0 01-75.768-75.384zM222 449.99c-39.394-.515-76.347-11.154-108.374-29.435l8.608-14.911c29.495 16.817 63.508 26.617 99.766 27.13v17.216zm6-17.216v17.216c19.327-.253 38.066-2.942 55.923-7.775l-4.456-16.631c-16.436 4.452-33.681 6.939-51.467 7.19zm52.574-7.493l4.456 16.631c38.239-10.559 72.394-30.96 99.569-58.306l-12.172-12.172c-25.07 25.241-56.577 44.079-91.853 53.847zM450 225.005c0 61.466-24.646 117.176-64.594 157.785l-12.173-12.172c36.834-37.494 59.554-88.9 59.554-145.613 0-18.331-2.374-36.108-6.831-53.04l16.632-4.457c4.836 18.354 7.412 37.624 7.412 57.497zm-24.339-54.149l16.631-4.457a223.626 223.626 0 00-21.415-52.189l-14.91 8.609a206.53 206.53 0 0119.694 48.037zM225.15.001c61.321.04 116.902 24.61 157.463 64.429l-12.172 12.172c-37.446-36.704-88.724-59.348-145.291-59.388V.001zm146.108 77.407l12.172-12.172a225.998 225.998 0 0133.96 43.036l-14.913 8.611a208.7 208.7 0 00-31.219-39.475z" fill="url(#paint0_radial_1027_15459)"/><path fill-rule="evenodd" clip-rule="evenodd" d="M224 .003c-22.237.097-43.713 3.42-63.984 9.524l5.876 16.215c18.431-5.459 37.93-8.43 58.108-8.525V.003zm-191.59 108.6c28.324-46.764 73.2-82.386 126.504-98.74l5.875 16.21c-49.473 14.954-91.154 47.86-117.466 91.14l-14.913-8.61zM7.455 167.352C2.59 185.752 0 205.076 0 225.005l.001.648h17.214v-.648c0-18.388 2.387-36.217 6.87-53.196l-16.63-4.457zm.296-1.108l16.63 4.456a206.493 206.493 0 0119.463-47.544l-14.91-8.609A223.6 223.6 0 007.75 166.244zm22.234 171.061C11.192 304.74.322 267.027.008 226.8h17.214c.314 37.091 10.345 71.864 27.673 101.897l-14.91 8.608zm15.486-7.616l-14.91 8.609a226.108 226.108 0 0082.07 81.685l8.608-14.91a208.814 208.814 0 01-75.768-75.384zM222 449.99c-39.394-.515-76.347-11.154-108.374-29.435l8.608-14.911c29.495 16.817 63.508 26.617 99.766 27.13v17.216zm6-17.216v17.216c19.327-.253 38.066-2.942 55.923-7.775l-4.456-16.631c-16.436 4.452-33.681 6.939-51.467 7.19zm52.574-7.493l4.456 16.631c38.239-10.559 72.394-30.96 99.569-58.306l-12.172-12.172c-25.07 25.241-56.577 44.079-91.853 53.847zM450 225.005c0 61.466-24.646 117.176-64.594 157.785l-12.173-12.172c36.834-37.494 59.554-88.9 59.554-145.613 0-18.331-2.374-36.108-6.831-53.04l16.632-4.457c4.836 18.354 7.412 37.624 7.412 57.497zm-24.339-54.149l16.631-4.457a223.626 223.626 0 00-21.415-52.189l-14.91 8.609a206.53 206.53 0 0119.694 48.037zM225.15.001c61.321.04 116.902 24.61 157.463 64.429l-12.172 12.172c-37.446-36.704-88.724-59.348-145.291-59.388V.001zm146.108 77.407l12.172-12.172a225.998 225.998 0 0133.96 43.036l-14.913 8.611a208.7 208.7 0 00-31.219-39.475z" fill="url(#paint1_radial_1027_15459)"/><defs><radialGradient id="paint0_radial_1027_15459" cx="0" cy="0" r="1" gradientUnits="userSpaceOnUse" gradientTransform="matrix(321.13615 -455.15519 494.47296 348.87693 225 455.155)"><stop stop-color="#0342E7"/><stop offset=".536" stop-color="#CB24FF"/></radialGradient><radialGradient id="paint1_radial_1027_15459" cx="0" cy="0" r="1" gradientUnits="userSpaceOnUse" gradientTransform="rotate(44.698 -232.923 58.683) scale(382.716 432.972)"><stop stop-color="#16A9FE"/><stop offset="1" stop-color="#16A9FE" stop-opacity="0"/></radialGradient></defs></svg>