<svg width="1" height="223" fill="none" xmlns="http://www.w3.org/2000/svg"><g clip-path="url(#clip0_290_594)"><path fill="#000" d="M1 0H0v223h1z"/><path fill-rule="evenodd" clip-rule="evenodd" d="M1-2.994V-4H0v1.006a.5.5 0 001 0zM.5 2.54a.5.5 0 00-.5.5v2.012a.5.5 0 101 0V3.04a.5.5 0 00-.5-.5zm0 8.047a.5.5 0 00-.5.5V13.1a.5.5 0 101 0v-2.012a.5.5 0 00-.5-.5zm0 8.047a.5.5 0 00-.5.5v2.011a.5.5 0 001 0v-2.011a.5.5 0 00-.5-.5zm0 8.047a.5.5 0 00-.5.5v2.011a.5.5 0 001 0v-2.011a.5.5 0 00-.5-.5zm0 8.046a.5.5 0 00-.5.5v2.012a.5.5 0 101 0v-2.012a.5.5 0 00-.5-.5zm0 8.047a.5.5 0 00-.5.5v2.012a.5.5 0 101 0v-2.012a.5.5 0 00-.5-.5zm0 8.047a.5.5 0 00-.5.5v2.012a.5.5 0 001 0v-2.012a.5.5 0 00-.5-.5zm0 8.047a.5.5 0 00-.5.5v2.012a.5.5 0 001 0v-2.012a.5.5 0 00-.5-.5zm0 8.047a.5.5 0 00-.5.5v2.012a.5.5 0 101 0v-2.012a.5.5 0 00-.5-.5zm0 8.047a.5.5 0 00-.5.5v2.012a.5.5 0 101 0v-2.012a.5.5 0 00-.5-.5zm0 8.047a.5.5 0 00-.5.5v2.011a.5.5 0 001 0v-2.01a.5.5 0 00-.5-.5zm0 8.047a.5.5 0 00-.5.5v2.011a.5.5 0 001 0v-2.011a.5.5 0 00-.5-.5zm0 8.046a.5.5 0 00-.5.5v2.012a.5.5 0 001 0v-2.011a.5.5 0 00-.5-.5zm0 8.047a.5.5 0 00-.5.5v2.012a.5.5 0 001 0v-2.012a.5.5 0 00-.5-.5zm0 8.047a.5.5 0 00-.5.5v2.012a.5.5 0 001 0v-2.012a.5.5 0 00-.5-.5zm0 8.047a.5.5 0 00-.5.5v2.012a.5.5 0 001 0v-2.012a.5.5 0 00-.5-.5zm0 8.047a.5.5 0 00-.5.5v2.012a.5.5 0 001 0v-2.012a.5.5 0 00-.5-.5zm0 8.047a.5.5 0 00-.5.5v2.012a.5.5 0 001 0v-2.012a.5.5 0 00-.5-.5zm0 8.047a.5.5 0 00-.5.5v2.011a.5.5 0 101 0v-2.011a.5.5 0 00-.5-.5zm0 8.047a.5.5 0 00-.5.5v2.011a.5.5 0 001 0v-2.011a.5.5 0 00-.5-.5zm0 8.047a.5.5 0 00-.5.5v2.011a.5.5 0 001 0v-2.011a.5.5 0 00-.5-.5zm0 8.046a.5.5 0 00-.5.5v2.012a.5.5 0 001 0v-2.012a.5.5 0 00-.5-.5zm0 8.047a.5.5 0 00-.5.5v2.012a.5.5 0 001 0v-2.012a.5.5 0 00-.5-.5zm0 8.047a.5.5 0 00-.5.5v2.012a.5.5 0 001 0v-2.012a.5.5 0 00-.5-.5zm0 8.047a.5.5 0 00-.5.5v2.012a.5.5 0 001 0v-2.012a.5.5 0 00-.5-.5zm0 8.047a.5.5 0 00-.5.5v2.012a.5.5 0 001 0v-2.012a.5.5 0 00-.5-.5zm0 8.047a.5.5 0 00-.5.5v2.011a.5.5 0 101 0v-2.011a.5.5 0 00-.5-.5zm0 8.047a.5.5 0 00-.5.5v2.011a.5.5 0 001 0v-2.011a.5.5 0 00-.5-.5zm0 8.047a.5.5 0 00-.5.5v2.011a.5.5 0 001 0v-2.011a.5.5 0 00-.5-.5zm0 8.046a.5.5 0 00-.5.5v2.012a.5.5 0 001 0V236.4a.5.5 0 00-.5-.5zm0 8.047a.5.5 0 00-.5.5v2.012a.5.5 0 001 0v-2.012a.5.5 0 00-.5-.5zm0 8.047a.5.5 0 00-.5.5v2.012a.5.5 0 001 0v-2.012a.5.5 0 00-.5-.5zm0 8.047a.5.5 0 00-.5.5v2.012a.5.5 0 001 0v-2.012a.5.5 0 00-.5-.5zm0 8.047a.5.5 0 00-.5.5v2.012a.5.5 0 001 0v-2.012a.5.5 0 00-.5-.5zm0 8.047a.5.5 0 00-.5.5v2.011a.5.5 0 101 0v-2.011a.5.5 0 00-.5-.5zm0 8.047a.5.5 0 00-.5.5v2.011a.5.5 0 101 0v-2.011a.5.5 0 00-.5-.5zm0 8.047a.5.5 0 00-.5.5v2.011a.5.5 0 001 0v-2.011a.5.5 0 00-.5-.5zm0 8.046a.5.5 0 00-.5.5v2.012a.5.5 0 001 0v-2.012a.5.5 0 00-.5-.5zm0 8.047a.5.5 0 00-.5.5v2.012a.5.5 0 001 0v-2.012a.5.5 0 00-.5-.5zm0 8.047a.5.5 0 00-.5.5v2.012a.5.5 0 001 0v-2.012a.5.5 0 00-.5-.5zm0 8.047a.5.5 0 00-.5.5v2.012a.5.5 0 001 0v-2.012a.5.5 0 00-.5-.5zm0 8.047a.5.5 0 00-.5.5v2.012a.5.5 0 001 0v-2.012a.5.5 0 00-.5-.5zm0 8.047a.5.5 0 00-.5.5v2.011a.5.5 0 101 0v-2.011a.5.5 0 00-.5-.5zm0 8.047a.5.5 0 00-.5.5v2.011a.5.5 0 101 0v-2.011a.5.5 0 00-.5-.5zm0 8.047a.5.5 0 00-.5.5v2.011a.5.5 0 001 0v-2.011a.5.5 0 00-.5-.5zm0 8.046a.5.5 0 00-.5.5v2.012a.5.5 0 001 0v-2.012a.5.5 0 00-.5-.5zm0 8.047a.5.5 0 00-.5.5v2.012a.5.5 0 001 0v-2.012a.5.5 0 00-.5-.5zm0 8.047a.5.5 0 00-.5.5v2.012a.5.5 0 001 0v-2.012a.5.5 0 00-.5-.5zm0 8.047a.5.5 0 00-.5.5v2.012a.5.5 0 001 0v-2.012a.5.5 0 00-.5-.5zm0 8.047a.5.5 0 00-.5.5v2.012a.5.5 0 001 0v-2.012a.5.5 0 00-.5-.5zm0 8.047a.5.5 0 00-.5.5v2.011a.5.5 0 101 0v-2.011a.5.5 0 00-.5-.5zm0 8.047a.5.5 0 00-.5.5v2.011a.5.5 0 101 0v-2.011a.5.5 0 00-.5-.5zm0 8.047a.5.5 0 00-.5.5v2.011a.5.5 0 001 0v-2.011a.5.5 0 00-.5-.5zm0 8.046a.5.5 0 00-.5.5v2.012a.5.5 0 001 0v-2.012a.5.5 0 00-.5-.5zm0 8.047a.5.5 0 00-.5.5v2.012a.5.5 0 001 0v-2.012a.5.5 0 00-.5-.5zm0 8.047a.5.5 0 00-.5.5v2.012a.5.5 0 001 0v-2.012a.5.5 0 00-.5-.5zm0 8.047a.5.5 0 00-.5.5v2.012a.5.5 0 001 0v-2.012a.5.5 0 00-.5-.5zm0 8.047a.5.5 0 00-.5.5v2.012a.5.5 0 001 0v-2.012a.5.5 0 00-.5-.5zm0 8.047a.5.5 0 00-.5.5v2.011a.5.5 0 101 0v-2.011a.5.5 0 00-.5-.5zm0 8.047a.5.5 0 00-.5.5v2.011a.5.5 0 101 0v-2.011a.5.5 0 00-.5-.5zm0 8.047a.5.5 0 00-.5.5v2.011a.5.5 0 001 0v-2.011a.5.5 0 00-.5-.5zm0 8.046a.5.5 0 00-.5.5v2.012a.5.5 0 001 0V493.9a.5.5 0 00-.5-.5zm0 8.047a.5.5 0 00-.5.5v2.012a.5.5 0 001 0v-2.012a.5.5 0 00-.5-.5zm0 8.047a.5.5 0 00-.5.5V511h1v-1.006a.5.5 0 00-.5-.5z" fill="#3A3A3A"/></g><defs><clipPath id="clip0_290_594"><path fill="#fff" transform="matrix(-1 0 0 1 1 0)" d="M0 0h1v223H0z"/></clipPath></defs></svg>